%TF.GenerationSoftware,KiCad,Pcbnew,10.0.3*%
%TF.CreationDate,2026-08-26T14:51:53-07:00*%
%TF.ProjectId,ControlPanel,436f6e74-726f-46c5-9061-6e656c2e6b69,rev?*%
%TF.SameCoordinates,Original*%
%TF.FileFunction,Soldermask,Bot*%
%TF.FilePolarity,Negative*%
%FSLAX46Y46*%
G04 Gerber Fmt 4.6, Leading zero omitted, Abs format (unit mm)*
G04 Created by KiCad (PCBNEW 10.0.3) date 2026-08-26 14:51:53*
%MOMM*%
%LPD*%
G01*
G04 APERTURE LIST*
%ADD10C,2.500000*%
%ADD11C,1.800000*%
%ADD12R,1.800000X1.800000*%
%ADD13R,3.000000X3.000000*%
%ADD14C,3.000000*%
%ADD15C,6.400000*%
%ADD16O,1.500000X3.000000*%
%ADD17R,1.700000X1.700000*%
%ADD18C,1.700000*%
G04 APERTURE END LIST*
D10*
%TO.C,U1*%
X140900000Y-74890000D03*
X140900000Y-98690000D03*
X164200000Y-74890000D03*
X164200000Y-98690000D03*
D11*
X148740000Y-74330000D03*
X151280000Y-74330000D03*
X153820000Y-74330000D03*
X156360000Y-74330000D03*
%TD*%
D12*
%TO.C,D4*%
X174359999Y-65300000D03*
D11*
X171819999Y-65300000D03*
%TD*%
D13*
%TO.C,RV2*%
X121970000Y-87770000D03*
D14*
X126970000Y-87770000D03*
X131970000Y-87770000D03*
%TD*%
D12*
%TO.C,D1*%
X131719999Y-65630000D03*
D11*
X129179999Y-65630000D03*
%TD*%
D15*
%TO.C,H1*%
X179770000Y-119350000D03*
%TD*%
D13*
%TO.C,RV1*%
X172230000Y-87530000D03*
D14*
X177230000Y-87530000D03*
X182230000Y-87530000D03*
%TD*%
D15*
%TO.C,H4*%
X136560000Y-119180000D03*
%TD*%
D12*
%TO.C,D2*%
X144259999Y-65630000D03*
D11*
X141719999Y-65630000D03*
%TD*%
D12*
%TO.C,D5*%
X187600000Y-65550000D03*
D11*
X185060000Y-65550000D03*
%TD*%
D16*
%TO.C,SW2*%
X192820000Y-87040000D03*
X196420000Y-87040000D03*
%TD*%
D15*
%TO.C,H3*%
X138360000Y-54730000D03*
%TD*%
%TO.C,H2*%
X178290000Y-54980000D03*
%TD*%
D12*
%TO.C,D3*%
X159059999Y-65300000D03*
D11*
X156519999Y-65300000D03*
%TD*%
D17*
%TO.C,J4*%
X172229999Y-50540000D03*
D18*
X169689999Y-50540000D03*
X167150000Y-50540000D03*
X164609999Y-50540000D03*
X162069999Y-50540000D03*
X159529999Y-50540000D03*
X156989999Y-50540000D03*
X154449998Y-50540000D03*
X151909999Y-50540000D03*
X149369999Y-50540000D03*
X146829999Y-50540000D03*
X144290000Y-50540000D03*
%TD*%
M02*
