M48
; DRILL file KiCad 10.0.3 date 2026-08-26T14:51:52
; FORMAT={-:-/ absolute / metric / decimal}
; #@! TF.CreationDate,2026-08-26T14:51:52-07:00
; #@! TF.GenerationSoftware,Kicad,Pcbnew,10.0.3
; #@! TF.FileFunction,Plated,1,2,PTH
FMAT,2
METRIC
; #@! TA.AperFunction,Plated,PTH,ComponentDrill
T1C0.900
; #@! TA.AperFunction,Plated,PTH,ComponentDrill
T2C1.000
; #@! TA.AperFunction,Plated,PTH,ComponentDrill
T3C1.000
; #@! TA.AperFunction,Plated,PTH,ComponentDrill
T4C1.050
; #@! TA.AperFunction,Plated,PTH,ComponentDrill
T5C1.200
; #@! TA.AperFunction,Plated,PTH,ComponentDrill
T6C2.500
; #@! TA.AperFunction,Plated,PTH,ComponentDrill
T7C3.200
%
G90
G05
T1
X129.18Y-65.63
X131.72Y-65.63
X141.72Y-65.63
X144.26Y-65.63
X156.52Y-65.3
X159.06Y-65.3
X171.82Y-65.3
X174.36Y-65.3
X185.06Y-65.55
X187.6Y-65.55
T3
X144.29Y-50.54
X146.83Y-50.54
X149.37Y-50.54
X151.91Y-50.54
X154.45Y-50.54
X156.99Y-50.54
X159.53Y-50.54
X162.07Y-50.54
X164.61Y-50.54
X167.15Y-50.54
X169.69Y-50.54
X172.23Y-50.54
T4
X148.74Y-74.33
X151.28Y-74.33
X153.82Y-74.33
X156.36Y-74.33
T5
X121.97Y-87.77
X126.97Y-87.77
X131.97Y-87.77
X172.23Y-87.53
X177.23Y-87.53
X182.23Y-87.53
T6
X140.9Y-74.89
X140.9Y-98.69
X164.2Y-74.89
X164.2Y-98.69
T7
X136.56Y-119.18
X138.36Y-54.73
X178.29Y-54.98
X179.77Y-119.35
T2
G00X192.82Y-86.29
M15
G01X192.82Y-87.79
M16
G05
G00X196.42Y-86.29
M15
G01X196.42Y-87.79
M16
G05
M30
